<!DOCTYPE svg PUBLIC "-//W3C//DTD SVG 20010904//EN" "http://www.w3.org/TR/2001/REC-SVG-20010904/DTD/svg10.dtd">
<svg version="1.0" xmlns="http://www.w3.org/2000/svg" width="225px" height="225px" viewBox="0 0 2250 2250" preserveAspectRatio="xMidYMid meet">
<g id="layerbg1" fill="#1d1a30" stroke="none">
 <path d="M761 1811 c-7 -12 -9 -21 -5 -21 3 0 2 -6 -3 -12 -11 -14 -35 -82 -38 -108 -1 -8 -5 -22 -8 -30 -33 -82 -36 -123 -8 -106 8 5 22 58 27 101 3 27 37 94 45 89 5 -3 7 -9 4 -14 -3 -5 -1 -11 4 -14 5 -4 12 -2 15 3 4 5 2 12 -4 16 -7 4 -7 13 0 26 12 21 4 43 -11 33 -6 -3 -5 3 3 15 9 15 10 23 1 32 -8 8 -14 6 -22 -10z"/>
 <path d="M845 1790 c-7 -11 36 -31 72 -33 34 -3 23 16 -17 30 -43 15 -47 16 -55 3z"/>
 <path d="M996 1741 c-4 -5 0 -13 8 -18 8 -4 15 -11 15 -15 2 -19 15 -6 15 14 0 24 -27 37 -38 19z"/>
 <path d="M1082 1708 c-7 -7 -12 -18 -12 -25 0 -7 -4 -21 -9 -31 -20 -41 -30 -87 -21 -96 10 -10 16 3 50 101 18 52 15 74 -8 51z"/>
 <path d="M660 1510 c-9 -17 -7 -22 12 -29 15 -6 28 -5 37 3 8 6 16 10 18 9 1 -2 3 0 3 5 0 4 -3 7 -7 7 -5 1 -18 6 -30 13 -19 11 -24 9 -33 -8z"/>
 <path d="M987 1524 c-3 -4 -2 -15 4 -26 11 -20 4 -56 -8 -45 -9 10 -34 -13 -27 -25 3 -5 13 -4 22 4 15 11 15 11 6 -2 -12 -17 -13 -49 -1 -52 11 -4 58 114 52 131 -3 8 -8 11 -12 8 -3 -4 -11 -2 -18 3 -7 5 -15 7 -18 4z"/>
 <path d="M895 1420 c-8 -12 20 -24 35 -15 6 3 8 11 5 16 -8 12 -32 12 -40 -1z"/>
 </g>
<g id="layerbg2" fill="#d51925" stroke="none">
 <path d="M1473 1557 c-13 -16 -44 -103 -42 -113 2 -5 -4 -21 -11 -36 -10 -22 -11 -34 -2 -54 17 -35 28 -23 27 28 -1 24 2 48 7 54 15 20 46 124 38 129 -4 3 -12 -1 -17 -8z"/>
 <path d="M1675 1510 c-3 -5 -4 -10 0 -10 3 0 1 -9 -5 -19 -6 -13 -6 -22 -1 -26 6 -3 15 3 21 14 9 17 15 19 37 10 17 -6 30 -6 36 0 7 7 2 13 -14 19 -52 20 -68 22 -74 12z"/>
 <path d="M1779 1484 c-1 -5 -1 -12 0 -16 0 -5 -5 -7 -11 -5 -7 1 -13 -5 -13 -13 0 -9 7 -14 19 -12 16 3 18 -1 13 -27 -4 -17 -2 -33 3 -36 10 -6 19 6 30 44 7 24 4 33 -16 52 -13 12 -25 18 -25 13z"/>
 <path d="M1764 1357 c-3 -8 -6 -25 -8 -39 -1 -13 -6 -29 -10 -36 -20 -33 -47 -135 -37 -145 7 -7 12 -6 15 4 3 8 15 40 27 72 11 32 18 61 15 64 -3 3 1 15 9 27 8 11 15 28 15 38 0 22 -19 33 -26 15z"/>
 <path d="M1395 1341 c-14 -24 -23 -71 -14 -77 5 -3 7 -10 4 -15 -9 -14 37 -28 61 -18 13 4 26 3 33 -4 6 -6 11 -7 11 -3 0 5 6 3 14 -3 10 -8 16 -9 21 -1 3 5 4 11 1 11 -16 4 -26 7 -31 9 -3 1 -8 3 -12 4 -5 1 -17 7 -29 13 -16 9 -24 9 -34 0 -10 -9 -11 -9 -6 0 3 6 2 14 -3 18 -7 4 -6 15 1 31 12 26 -3 57 -17 35z"/>
 <path d="M1655 1166 c-14 -10 -15 -15 -6 -21 8 -4 19 -1 28 8 20 19 1 30 -22 13z"/>
 </g>
<g id="layerbg3" fill="#229e86" stroke="none">
 <path d="M815 1811 c-6 -11 13 -26 22 -17 3 3 12 1 20 -5 7 -6 13 -8 13 -4 0 4 6 2 14 -4 10 -8 16 -9 21 -1 3 5 4 11 1 11 -16 4 -26 7 -31 9 -3 1 -9 3 -14 4 -5 0 -13 4 -17 9 -10 10 -22 9 -29 -2z"/>
 <path d="M834 1429 c-6 -10 24 -27 57 -31 13 -2 29 -7 36 -11 6 -4 14 -3 17 2 4 5 2 12 -4 16 -5 3 -10 3 -10 -1 0 -4 -8 0 -17 8 -21 18 -71 29 -79 17z"/>
 <path d="M585 1270 c-3 -5 -3 -10 1 -10 4 0 -2 -11 -15 -23 -18 -20 -19 -26 -8 -35 18 -15 30 -3 15 15 -9 11 -8 13 2 11 8 -2 14 2 15 7 0 6 4 15 8 22 4 6 3 14 -2 17 -5 4 -12 2 -16 -4z"/>
 <path d="M515 1091 c-8 -17 -13 -31 -9 -31 4 0 1 -6 -5 -14 -6 -8 -11 -18 -9 -22 1 -5 -4 -20 -11 -32 -7 -13 -10 -26 -7 -29 3 -4 1 -12 -5 -20 -6 -7 -8 -13 -4 -13 4 0 2 -6 -4 -14 -8 -10 -9 -16 -1 -21 5 -3 11 -4 11 -1 4 16 7 26 9 31 1 3 3 11 4 18 0 6 13 12 29 12 15 1 27 5 26 10 0 6 -6 9 -14 7 -7 -1 -17 3 -21 9 -4 8 -3 9 4 5 18 -11 34 30 17 44 -12 10 -12 15 2 36 8 13 19 24 22 24 10 0 8 -31 -3 -48 -4 -6 -4 -17 -1 -22 9 -14 27 -1 21 15 -3 8 3 19 12 27 11 9 14 10 8 0 -10 -16 41 -37 58 -23 17 15 106 -19 103 -39 -1 -8 5 -15 13 -15 8 0 14 6 12 14 -2 8 3 11 12 8 9 -4 18 -2 21 3 7 11 -4 16 -145 66 -58 20 -110 39 -117 41 -6 3 -19 -9 -28 -26z"/>
 <path d="M802 990 l-23 -30 25 -10 c27 -10 28 -30 3 -58 -15 -17 -16 -21 -3 -31 12 -10 17 -8 25 8 6 11 11 24 10 28 -1 4 5 24 14 43 17 38 11 63 -9 36 -6 -9 -15 -13 -18 -8 -3 5 1 15 9 22 14 12 12 30 -4 30 -4 0 -17 -14 -29 -30z"/>
 <path d="M431 810 c-13 -9 -22 -24 -19 -31 5 -13 137 -65 183 -72 11 -1 25 -6 32 -10 6 -4 14 -3 17 2 4 5 2 12 -4 16 -5 3 -10 3 -10 -1 0 -3 -15 5 -34 19 -18 15 -36 24 -39 21 -8 -9 -107 28 -101 37 3 5 9 7 14 4 5 -3 11 -1 15 4 3 6 -3 14 -13 20 -13 7 -24 5 -41 -9z"/>
 <path d="M776 778 c-14 -33 -12 -53 4 -43 4 3 13 18 18 35 15 42 -5 50 -22 8z"/>
 <path d="M660 710 c-9 -17 -7 -22 12 -29 28 -10 39 -5 31 14 -3 8 -1 15 5 15 5 0 9 -10 8 -22 -1 -17 4 -22 24 -22 20 0 25 5 25 24 0 14 -5 24 -10 23 -6 -2 -10 -7 -10 -12 0 -5 -3 -12 -6 -16 -4 -3 -6 4 -5 16 2 31 -58 38 -74 9z"/>
 </g>
<g id="layerbg4" fill="#1ea47c" stroke="none">
 <path d="M975 2140 c-8 -13 20 -24 41 -16 20 8 9 26 -16 26 -10 0 -22 -5 -25 -10z"/>
 <path d="M1106 2102 c-3 -6 1 -15 9 -22 8 -7 15 -18 15 -24 0 -6 9 -22 19 -35 27 -35 37 -8 12 33 -26 42 -47 60 -55 48z"/>
 <path d="M820 1984 c-44 -120 -50 -143 -39 -149 9 -6 37 48 44 84 2 9 8 29 14 45 8 20 8 33 2 39 -7 7 -14 1 -21 -19z"/>
 <path d="M1153 1917 c-17 -21 -42 -106 -33 -112 11 -7 14 -2 39 63 19 48 15 77 -6 49z"/>
 <path d="M604 1338 c-19 -29 -43 -123 -34 -132 6 -6 13 2 20 20 6 16 18 46 27 67 11 26 13 41 6 48 -8 8 -13 7 -19 -3z"/>
 <path d="M925 1245 c-12 -26 -13 -41 -6 -48 7 -7 15 1 26 28 12 26 13 41 6 48 -7 7 -15 -1 -26 -28z"/>
 <path d="M846 1019 c-10 -20 -13 -36 -7 -42 6 -6 16 3 26 23 11 21 13 36 7 42 -6 6 -15 -2 -26 -23z"/>
 <path d="M376 665 c-9 -21 -14 -40 -11 -43 3 -3 1 -10 -4 -16 -5 -6 -14 -28 -21 -49 -13 -41 -6 -69 32 -135 28 -46 42 -29 17 20 -25 49 -22 142 6 201 14 27 16 40 8 48 -9 9 -16 2 -27 -26z"/>
 <path d="M720 631 c-5 -11 -9 -24 -8 -28 1 -4 -6 -23 -16 -42 -12 -23 -15 -36 -7 -44 7 -7 14 -1 23 19 6 16 13 34 13 39 2 10 14 43 22 57 2 4 -1 9 -6 13 -6 3 -15 -3 -21 -14z"/>
 <path d="M416 391 c-6 -10 10 -25 36 -34 27 -10 31 10 6 27 -26 18 -35 20 -42 7z"/>
 <path d="M579 382 c-13 -12 -18 -21 -12 -25 6 -4 21 1 34 11 13 12 18 21 12 25 -6 4 -21 -1 -34 -11z"/>
 <path d="M495 360 c-8 -13 20 -24 41 -16 20 8 9 26 -16 26 -10 0 -22 -5 -25 -10z"/>
 </g>
<g id="layerbg5" fill="#d91259" stroke="none">
 <path d="M445 1891 c-16 -10 -43 -32 -58 -48 -24 -26 -26 -31 -13 -43 13 -10 17 -8 25 13 8 22 15 25 45 23 21 -2 41 2 47 10 13 16 126 12 159 -6 15 -8 25 -9 32 -2 11 11 -35 35 -89 48 -13 4 -26 10 -29 15 -3 5 -14 5 -25 -1 -13 -7 -25 -7 -38 0 -25 13 -21 13 -56 -9z"/>
 <path d="M729 1830 c-10 -6 -15 -23 -14 -52 0 -48 11 -52 39 -15 17 23 17 28 5 43 -8 9 -12 19 -11 21 7 10 -4 11 -19 3z"/>
 <path d="M344 1763 c-17 -39 -9 -71 17 -65 10 2 10 0 0 -12 -11 -13 -10 -22 4 -52 19 -41 40 -40 40 2 0 20 -4 28 -14 26 -12 -3 -12 0 -2 11 7 9 9 26 5 41 -3 15 -1 32 5 40 9 10 6 17 -14 30 -26 17 -26 17 -41 -21z"/>
 <path d="M719 1716 c-1 -3 -2 -12 -3 -18 0 -7 -8 -13 -16 -13 -20 0 -23 -6 -14 -28 7 -19 -30 -68 -49 -64 -6 1 -12 -5 -13 -13 -3 -36 -5 -40 -14 -40 -7 0 -7 6 0 20 8 15 6 21 -11 30 -11 7 -28 9 -37 5 -16 -6 -15 -8 2 -20 17 -13 16 -14 -10 -11 -16 2 -35 4 -42 5 -7 0 -12 8 -10 17 2 13 -7 17 -45 19 -26 1 -50 -2 -53 -6 -4 -8 61 -49 86 -54 8 -2 42 -12 75 -24 56 -19 61 -19 74 -3 13 16 13 16 8 0 -11 -33 13 -29 27 4 16 37 10 60 -9 35 -16 -22 -20 -21 -22 2 -1 16 4 19 25 18 23 -2 28 4 44 47 9 28 15 52 13 55 -3 2 0 10 6 17 7 8 7 14 -1 19 -5 3 -11 4 -11 1z"/>
 <path d="M1085 1684 c-17 -42 -5 -71 15 -34 10 19 13 20 28 7 15 -13 20 -14 36 -2 22 16 38 11 30 -10 -3 -7 4 -19 16 -25 19 -10 26 -9 42 8 20 20 20 20 -6 37 -14 9 -32 15 -40 12 -7 -3 -18 -1 -22 3 -5 5 -19 11 -31 13 -11 1 -28 9 -37 16 -13 11 -17 7 -31 -25z"/>
 <path d="M1276 1642 c-4 -7 -3 -19 3 -51 1 -2 7 2 15 8 7 6 20 9 29 5 26 -10 28 13 2 30 -27 18 -41 20 -49 8z"/>
 <path d="M1066 1621 c-7 -11 28 -43 37 -34 12 11 8 22 -12 33 -11 5 -22 6 -25 1z"/>
 <path d="M1361 1602 c-12 -22 -8 -78 5 -74 5 2 8 10 6 18 -2 8 2 14 8 14 6 0 9 -4 5 -9 -3 -5 -1 -12 4 -15 5 -4 12 -2 16 3 8 13 32 3 39 -16 4 -9 1 -22 -5 -30 -9 -10 -9 -17 -2 -24 8 -8 14 -5 22 10 7 12 9 21 5 21 -3 0 -1 7 6 15 7 8 9 15 5 15 -4 0 -2 7 5 15 19 23 6 40 -40 54 -23 7 -48 15 -55 17 -8 3 -18 -3 -24 -14z"/>
 <path d="M1045 1564 c-8 -20 -13 -39 -10 -42 3 -3 0 -11 -6 -19 -6 -7 -8 -13 -4 -13 4 0 2 -7 -5 -15 -7 -8 -9 -15 -5 -15 4 0 2 -6 -4 -14 -9 -10 -9 -16 -1 -21 8 -5 6 -13 -6 -26 -14 -15 -14 -20 -3 -24 98 -35 98 -35 110 -13 9 18 8 24 -7 35 -10 7 -26 13 -37 13 -12 0 -17 5 -14 13 3 7 -1 21 -9 32 -11 15 -11 21 -1 33 6 8 11 18 9 21 -1 3 9 6 22 6 30 1 41 9 31 25 -5 8 -11 7 -23 -2 -14 -12 -15 -9 -9 19 9 46 -10 51 -28 7z"/>
 <path d="M1814 1445 c-19 -14 -18 -15 6 -35 14 -11 20 -20 15 -20 -6 0 -16 5 -22 11 -8 8 -14 6 -22 -8 -18 -36 -40 -106 -35 -115 10 -16 33 13 40 48 3 19 10 31 16 28 16 -10 45 25 43 51 -2 17 1 22 12 18 8 -3 12 -12 9 -20 -8 -19 22 -29 44 -15 14 9 20 8 24 -5 5 -12 9 -13 20 -4 11 9 15 7 18 -7 4 -16 14 -19 51 -17 42 1 45 0 42 -23 -3 -33 31 -68 50 -52 17 14 1 55 -17 44 -6 -4 -8 -3 -5 3 9 14 -30 49 -73 66 -19 8 -44 18 -55 22 -35 14 -49 14 -64 2 -12 -9 -13 -9 -8 0 5 8 -4 18 -22 28 -37 19 -42 19 -67 0z"/>
 <path d="M1422 1437 c-7 -8 -15 -28 -18 -46 -4 -17 -12 -30 -18 -29 -6 2 -12 -2 -12 -7 -1 -6 3 -9 8 -7 6 2 8 -4 5 -12 -9 -23 10 -29 22 -8 35 66 45 148 13 109z"/>
 <path d="M1189 1363 c-1 -4 -1 -11 0 -15 1 -11 -7 -10 -31 3 -13 7 -23 8 -30 1 -13 -13 38 -41 102 -58 39 -11 48 -10 65 4 17 15 18 15 7 1 -11 -14 -7 -19 30 -38 47 -23 63 -17 49 21 -9 23 -31 40 -56 43 -5 1 -25 9 -43 18 -24 13 -37 15 -51 7 -24 -12 -34 -13 -26 -1 3 5 1 12 -5 16 -5 3 -11 3 -11 -2z"/>
 <path d="M2124 1256 c-3 -9 -10 -14 -14 -11 -17 11 -21 -17 -6 -40 13 -20 13 -24 1 -29 -9 -3 -12 -12 -8 -22 4 -11 2 -15 -4 -11 -6 4 -18 -5 -28 -19 -12 -19 -20 -23 -29 -15 -7 6 -15 8 -18 6 -3 -3 -17 -1 -32 5 -41 15 -51 2 -21 -28 51 -51 127 -20 170 71 29 59 31 80 10 97 -12 10 -16 9 -21 -4z"/>
 <path d="M1721 1188 c-9 -24 2 -58 19 -58 6 0 13 -1 17 -2 4 -2 9 12 10 29 2 24 -3 35 -17 43 -17 9 -22 7 -29 -12z"/>
 <path d="M1785 1120 c-6 -10 7 -18 37 -24 7 -2 26 -8 41 -14 16 -7 34 -12 41 -12 6 0 17 -5 22 -10 8 -8 15 -6 23 4 10 12 8 17 -11 27 -13 7 -34 14 -48 16 -39 4 -59 8 -66 16 -11 10 -32 9 -39 -3z"/>
 </g>
<g id="layerbg6" fill="#351038" stroke="none">
 <path d="M758 1822 c0 -4 -2 -11 -3 -17 -1 -5 -10 -28 -19 -49 -10 -22 -19 -49 -20 -61 -1 -11 -5 -25 -8 -30 -3 -6 -18 -43 -32 -84 -23 -67 -24 -76 -11 -91 8 -9 21 -17 28 -18 12 -1 186 -57 222 -72 45 -19 85 -28 88 -22 5 8 28 78 31 95 2 7 6 19 9 27 25 67 47 132 45 138 -1 4 4 17 11 30 11 20 10 26 -4 42 -9 10 -30 22 -47 25 -16 4 -41 13 -56 21 -15 8 -37 14 -49 14 -12 0 -25 5 -28 10 -4 6 -10 8 -15 5 -5 -3 -27 4 -50 16 -42 22 -89 33 -92 21z"/>
 </g>
<g id="layerbg7" fill="#ce0e0b" stroke="none">
 <path d="M1479 1578 c0 -2 -2 -10 -4 -18 -4 -21 -53 -171 -64 -195 -4 -11 -13 -33 -18 -50 -6 -16 -14 -38 -18 -47 -8 -20 35 -41 181 -87 55 -18 109 -37 122 -43 14 -7 26 -8 31 -2 5 5 23 52 40 104 18 52 34 102 38 110 32 78 39 110 26 121 -7 6 -13 8 -13 4 0 -4 -6 -3 -12 2 -7 6 -26 13 -43 17 -16 4 -43 14 -60 22 -68 31 -203 72 -206 62z"/>
 </g>
<g id="layerbg8" fill="#1b927b" stroke="none">
 <path d="M1055 1730 c-7 -12 32 -33 45 -25 6 4 8 10 5 14 -7 13 -44 20 -50 11z"/>
 <path d="M695 1480 c-6 -10 28 -27 69 -35 11 -2 22 -4 24 -6 1 -1 5 -2 10 -4 4 -1 20 -7 36 -14 20 -8 33 -8 39 -2 7 7 1 14 -17 21 -15 5 -30 9 -34 9 -4 -1 -10 0 -14 1 -5 1 -11 3 -15 5 -5 1 -25 9 -45 18 -44 20 -45 20 -53 7z"/>
 <path d="M906 1411 c-4 -5 -2 -12 4 -16 5 -3 10 -4 10 -1 0 3 12 -1 27 -9 15 -8 31 -11 36 -8 12 7 -8 26 -30 28 -10 0 -24 4 -30 8 -6 4 -14 3 -17 -2z"/>
 <path d="M522 1093 c-15 -28 -94 -266 -97 -290 -2 -12 2 -26 8 -31 18 -14 118 -44 125 -38 3 4 12 0 21 -8 9 -7 50 -25 91 -39 66 -23 76 -25 86 -11 11 13 108 298 109 317 0 4 -4 8 -10 9 -5 1 -79 25 -164 55 -85 29 -156 53 -157 53 -2 0 -7 -8 -12 -17z"/>
 </g>
<g id="layerbg9" fill="#64841b" stroke="none">
 <path d="M1237 863 c-18 -33 -107 -326 -101 -333 17 -15 323 -113 337 -107 16 6 121 317 110 327 -4 4 -28 14 -53 23 -25 8 -90 31 -145 50 -132 46 -143 49 -148 40z"/>
 </g>
<g id="layerbg10" fill="#e01563" stroke="none">
 <path d="M484 1899 c-3 -6 -15 -8 -26 -6 -20 6 -80 -40 -100 -76 -13 -24 -18 -146 -6 -153 5 -3 6 -9 3 -14 -3 -5 4 -15 15 -23 11 -7 17 -16 14 -20 -3 -3 12 -17 32 -31 25 -17 42 -22 48 -16 13 13 29 13 21 1 -6 -11 22 -29 57 -35 13 -3 24 -5 26 -7 1 -1 5 -2 10 -3 4 -1 16 -7 27 -13 24 -13 50 -20 53 -13 9 19 85 241 91 265 4 17 13 41 20 53 9 18 9 23 -1 27 -82 30 -192 64 -199 60 -4 -3 -10 -1 -14 5 -8 13 -62 13 -71 -1z"/>
 <path d="M1101 1702 c-5 -9 -10 -20 -10 -24 -1 -4 -8 -23 -16 -42 -8 -20 -15 -39 -15 -44 0 -5 -16 -51 -35 -102 -22 -60 -31 -99 -26 -108 13 -24 161 -73 183 -61 18 10 19 9 22 -13 2 -16 136 -60 150 -49 6 5 15 9 20 8 13 -3 23 19 42 96 9 37 21 70 26 73 4 3 8 14 8 25 0 10 4 27 10 37 16 27 35 86 27 80 -2 -2 -11 3 -19 10 -9 7 -47 23 -86 36 -53 18 -73 21 -82 13 -10 -9 -11 -9 -6 0 9 16 -11 26 -47 25 -17 0 -35 5 -41 12 -6 7 -30 20 -53 29 -40 16 -43 16 -52 -1z"/>
 <path d="M1815 1458 c-2 -7 -14 -47 -26 -88 -12 -41 -25 -79 -29 -85 -3 -5 -12 -30 -19 -55 -7 -25 -20 -57 -28 -73 -14 -26 -13 -27 14 -38 15 -6 37 -12 48 -13 12 -1 26 -5 32 -9 57 -35 175 -55 227 -37 31 10 105 78 107 98 8 87 4 140 -12 168 -19 31 -101 83 -142 88 -12 2 -39 11 -59 20 -21 9 -46 17 -57 19 -11 2 -24 6 -27 10 -11 11 -24 8 -29 -5z"/>
 </g>
<g id="layerbg11" fill="#6dc9db" stroke="none">
 <path d="M965 2150 c-3 -5 0 -13 9 -16 21 -8 61 -1 61 11 0 14 -62 19 -70 5z"/>
 <path d="M172 1160 c-54 -39 -76 -82 -76 -150 -1 -45 4 -63 28 -98 33 -49 81 -76 196 -112 41 -13 80 -31 87 -39 10 -14 12 -14 16 -1 3 8 29 89 58 180 29 91 54 167 54 170 0 3 -47 22 -105 42 -137 49 -199 51 -258 8z"/>
 <path d="M850 985 c-6 -14 -10 -33 -10 -40 0 -8 -6 -29 -14 -47 -32 -74 -77 -231 -69 -239 12 -12 383 -137 387 -130 16 29 107 325 103 335 -3 7 -16 16 -29 19 -33 8 -331 112 -346 121 -8 5 -16 -2 -22 -19z"/>
 <path d="M1569 732 c-6 -15 -32 -91 -58 -170 -56 -165 -65 -144 87 -192 79 -25 115 -31 153 -28 89 9 160 89 158 178 -1 92 -56 143 -217 199 l-113 40 -10 -27z"/>
 <path d="M690 514 c-6 -16 -13 -34 -15 -41 -2 -7 0 -15 6 -18 14 -9 43 65 30 78 -7 7 -14 1 -21 -19z"/>
 </g>
<g id="layerbg12" fill="#3eb891" stroke="none">
 <path d="M913 2130 c-36 -21 -82 -76 -85 -98 0 -9 -2 -22 -2 -28 -1 -6 -7 -18 -14 -27 -7 -8 -15 -26 -16 -39 -2 -13 -11 -40 -20 -62 -10 -21 -15 -43 -13 -50 3 -6 34 -19 71 -30 37 -10 69 -23 72 -27 3 -5 14 -9 25 -9 10 0 27 -5 37 -10 27 -16 142 -49 146 -41 6 11 58 175 62 196 2 11 7 35 10 52 4 18 3 41 -1 50 -5 10 -9 25 -11 33 -2 8 -12 22 -23 31 -11 9 -18 19 -15 22 3 3 -10 15 -28 28 -43 31 -151 36 -195 9z"/>
 <path d="M644 1489 c-3 -6 -3 -13 0 -16 3 -3 1 -12 -4 -18 -21 -25 -47 -124 -36 -135 7 -7 6 -10 -3 -10 -13 0 -46 -69 -37 -78 3 -3 1 -11 -4 -17 -17 -21 -49 -124 -40 -130 5 -3 11 -1 15 4 4 7 15 6 33 0 91 -36 256 -90 279 -92 24 -2 28 4 59 93 19 52 35 106 38 120 2 14 5 26 6 28 2 1 3 5 4 10 1 4 9 23 17 42 24 53 30 88 19 95 -6 4 -39 15 -73 25 -34 11 -100 33 -147 50 -103 38 -118 42 -126 29z"/>
 <path d="M485 1017 c-4 -8 -8 -21 -9 -29 -2 -7 -8 -24 -13 -38 -20 -49 -24 -68 -13 -75 10 -6 30 33 34 70 1 11 8 31 15 44 9 16 10 26 2 34 -7 7 -12 6 -16 -6z"/>
 <path d="M830 930 c-8 -15 -9 -25 -2 -32 7 -7 14 -3 22 12 8 15 9 25 2 32 -7 7 -14 3 -22 -12z"/>
 <path d="M800 846 c-5 -15 -9 -30 -8 -34 1 -4 -6 -25 -16 -47 -20 -48 -24 -68 -12 -75 7 -4 47 84 44 99 -1 3 4 19 11 35 8 20 8 33 2 39 -7 7 -14 1 -21 -17z"/>
 <path d="M405 756 c-9 -13 -18 -37 -20 -53 -2 -15 -4 -30 -5 -33 -2 -3 -2 -9 -1 -14 1 -5 -5 -16 -14 -26 -9 -10 -15 -21 -14 -26 1 -5 1 -11 0 -14 -2 -5 -3 -117 -2 -137 2 -24 62 -82 78 -76 11 4 14 2 9 -5 -11 -18 25 -30 90 -28 55 1 66 5 108 39 39 32 50 50 61 97 1 3 7 19 14 35 7 17 14 35 15 40 2 6 7 19 11 30 4 11 14 35 21 53 10 25 11 34 1 37 -7 2 -83 26 -170 54 -87 28 -160 51 -162 51 -3 0 -12 -11 -20 -24z"/>
 </g>
<g id="layerbg13" fill="#e8a71f" stroke="none">
 <path d="M1645 1894 c-45 -23 -65 -44 -90 -94 -32 -62 -79 -220 -68 -230 8 -8 322 -115 337 -115 5 0 10 7 12 15 1 8 18 62 38 119 20 57 36 116 36 131 0 65 -45 140 -104 172 -39 22 -122 23 -161 2z"/>
 <path d="M1367 1253 c-2 -5 -32 -93 -66 -197 -70 -208 -70 -201 4 -225 22 -7 91 -31 153 -54 97 -34 115 -38 127 -26 18 19 137 382 127 390 -6 6 -327 119 -337 119 -2 0 -6 -3 -8 -7z"/>
 <path d="M1125 528 c-36 -95 -75 -229 -75 -253 0 -47 40 -116 85 -146 79 -54 162 -44 231 25 34 34 47 60 79 154 20 63 33 117 29 121 -11 10 -315 111 -332 111 -7 0 -15 -6 -17 -12z"/>
 </g>
<g id="layer101" fill="#1d1a30" stroke="none">
 <path d="M766 1805 c-3 -8 -1 -15 4 -15 6 0 10 7 10 15 0 8 -2 15 -4 15 -2 0 -6 -7 -10 -15z"/>
 <path d="M865 1780 c27 -12 43 -12 25 0 -8 5 -22 9 -30 9 -10 0 -8 -3 5 -9z"/>
 <path d="M750 1759 c0 -5 5 -7 10 -4 6 3 10 8 10 11 0 2 -4 4 -10 4 -5 0 -10 -5 -10 -11z"/>
 <path d="M776 1755 c-9 -26 -7 -32 5 -12 6 10 9 21 6 23 -2 3 -7 -2 -11 -11z"/>
 <path d="M918 1763 c7 -3 16 -2 19 1 4 3 -2 6 -13 5 -11 0 -14 -3 -6 -6z"/>
 <path d="M741 1733 c-1 -6 -4 -20 -7 -30 -5 -17 -5 -17 6 0 6 10 9 23 6 30 -3 9 -5 9 -5 0z"/>
 <path d="M1008 1733 c7 -3 16 -2 19 1 4 3 -2 6 -13 5 -11 0 -14 -3 -6 -6z"/>
 <path d="M1050 1720 c0 -7 3 -10 7 -7 3 4 3 10 0 14 -4 3 -7 0 -7 -7z"/>
 <path d="M1083 1695 c-3 -9 -3 -18 -1 -21 3 -3 8 4 11 16 6 23 -1 27 -10 5z"/>
 <path d="M720 1670 c0 -7 3 -10 7 -7 3 4 3 10 0 14 -4 3 -7 0 -7 -7z"/>
 <path d="M1067 1653 c-4 -3 -7 -16 -6 -27 0 -19 1 -19 10 3 10 24 8 36 -4 24z"/>
 <path d="M710 1630 c0 -7 3 -10 7 -7 3 4 3 10 0 14 -4 3 -7 0 -7 -7z"/>
 <path d="M701 1594 c0 -11 3 -14 6 -6 3 7 2 16 -1 19 -3 4 -6 -2 -5 -13z"/>
 <path d="M1040 1570 c0 -7 3 -10 7 -7 3 4 3 10 0 14 -4 3 -7 0 -7 -7z"/>
 <path d="M686 1555 c-3 -8 -1 -15 4 -15 6 0 10 7 10 15 0 8 -2 15 -4 15 -2 0 -6 -7 -10 -15z"/>
 <path d="M691 1494 c0 -11 3 -14 6 -6 3 7 2 16 -1 19 -3 4 -6 -2 -5 -13z"/>
 <path d="M763 1503 c4 -3 10 -3 14 0 3 4 0 7 -7 7 -7 0 -10 -3 -7 -7z"/>
 <path d="M1018 1495 c-3 -11 -9 -29 -13 -40 -3 -11 1 -7 10 8 9 16 15 33 12 40 -2 6 -6 3 -9 -8z"/>
 <path d="M663 1493 c4 -3 10 -3 14 0 3 4 0 7 -7 7 -7 0 -10 -3 -7 -7z"/>
 <path d="M964 1438 c-4 -7 -3 -8 4 -4 12 7 16 16 8 16 -3 0 -8 -5 -12 -12z"/>
 <path d="M985 1420 c-3 -5 -1 -10 4 -10 6 0 11 5 11 10 0 6 -2 10 -4 10 -3 0 -8 -4 -11 -10z"/>
 <path d="M908 1413 c7 -3 16 -2 19 1 4 3 -2 6 -13 5 -11 0 -14 -3 -6 -6z"/>
 <path d="M980 1390 c0 -7 3 -10 7 -7 3 4 3 10 0 14 -4 3 -7 0 -7 -7z"/>
 </g>
<g id="layer102" fill="#d51925" stroke="none">
 <path d="M1475 1549 c-4 -6 -5 -12 -2 -15 2 -3 7 2 10 11 7 17 1 20 -8 4z"/>
 <path d="M1451 1484 c-7 -20 -11 -38 -8 -40 3 -3 10 11 17 31 16 47 8 55 -9 9z"/>
 <path d="M1683 1503 c4 -3 10 -3 14 0 3 4 0 7 -7 7 -7 0 -10 -3 -7 -7z"/>
 <path d="M1713 1493 c4 -3 10 -3 14 0 3 4 0 7 -7 7 -7 0 -10 -3 -7 -7z"/>
 <path d="M1743 1483 c4 -3 10 -3 14 0 3 4 0 7 -7 7 -7 0 -10 -3 -7 -7z"/>
 <path d="M1787 1459 c4 -13 8 -18 11 -10 2 7 -1 18 -6 23 -8 8 -9 4 -5 -13z"/>
 <path d="M1760 1450 c0 -7 3 -10 7 -7 3 4 3 10 0 14 -4 3 -7 0 -7 -7z"/>
 <path d="M1801 1423 c-1 -6 -4 -20 -7 -30 -5 -17 -5 -17 6 0 6 10 9 23 6 30 -3 9 -5 9 -5 0z"/>
 <path d="M1424 1396 c-3 -14 -2 -31 3 -40 6 -11 8 -3 8 24 0 46 -2 50 -11 16z"/>
 <path d="M1771 1348 c0 -9 -4 -25 -7 -35 -5 -17 -5 -17 6 0 6 10 9 25 7 35 -4 15 -5 15 -6 0z"/>
 <path d="M1395 1320 c-4 -12 -5 -24 -2 -27 3 -2 8 5 12 17 4 12 5 24 2 27 -3 2 -8 -5 -12 -17z"/>
 <path d="M1742 1251 c-17 -48 -14 -63 4 -22 8 19 13 39 11 45 -2 6 -9 -5 -15 -23z"/>
 <path d="M1437 1249 c7 -7 15 -10 18 -7 3 3 -2 9 -12 12 -14 6 -15 5 -6 -5z"/>
 <path d="M1393 1243 c4 -3 10 -3 14 0 3 4 0 7 -7 7 -7 0 -10 -3 -7 -7z"/>
 <path d="M1716 1175 c-3 -9 -6 -22 -5 -28 0 -7 5 -1 10 12 5 13 8 26 5 28 -2 2 -6 -3 -10 -12z"/>
 <path d="M1660 1160 c-9 -6 -10 -10 -3 -10 6 0 15 5 18 10 8 12 4 12 -15 0z"/>
 </g>
<g id="layer103" fill="#229e86" stroke="none">
 <path d="M823 1803 c4 -3 10 -3 14 0 3 4 0 7 -7 7 -7 0 -10 -3 -7 -7z"/>
 <path d="M860 1416 c0 -2 11 -6 25 -8 13 -3 22 -1 19 3 -5 9 -44 13 -44 5z"/>
 <path d="M565 1210 c3 -5 8 -10 11 -10 3 0 2 5 -1 10 -3 6 -8 10 -11 10 -3 0 -2 -4 1 -10z"/>
 <path d="M533 1103 c4 -3 10 -3 14 0 3 4 0 7 -7 7 -7 0 -10 -3 -7 -7z"/>
 <path d="M570 1090 c8 -5 20 -10 25 -10 6 0 3 5 -5 10 -8 5 -19 10 -25 10 -5 0 -3 -5 5 -10z"/>
 <path d="M560 1070 c0 -7 3 -10 7 -7 3 4 3 10 0 14 -4 3 -7 0 -7 -7z"/>
 <path d="M613 1073 c4 -3 10 -3 14 0 3 4 0 7 -7 7 -7 0 -10 -3 -7 -7z"/>
 <path d="M643 1063 c4 -3 10 -3 14 0 3 4 0 7 -7 7 -7 0 -10 -3 -7 -7z"/>
 <path d="M593 1053 c4 -3 10 -3 14 0 3 4 0 7 -7 7 -7 0 -10 -3 -7 -7z"/>
 <path d="M680 1052 c8 -5 26 -13 40 -16 17 -5 20 -4 10 2 -8 5 -26 13 -40 16 -17 5 -20 4 -10 -2z"/>
 <path d="M623 1043 c4 -3 10 -3 14 0 3 4 0 7 -7 7 -7 0 -10 -3 -7 -7z"/>
 <path d="M500 1030 c0 -7 3 -10 7 -7 3 4 3 10 0 14 -4 3 -7 0 -7 -7z"/>
 <path d="M550 1030 c0 -7 3 -10 7 -7 3 4 3 10 0 14 -4 3 -7 0 -7 -7z"/>
 <path d="M758 1023 c7 -3 16 -2 19 1 4 3 -2 6 -13 5 -11 0 -14 -3 -6 -6z"/>
 <path d="M515 1009 c-4 -6 -5 -12 -2 -15 2 -3 7 2 10 11 7 17 1 20 -8 4z"/>
 <path d="M823 1003 c4 -3 10 -3 14 0 3 4 0 7 -7 7 -7 0 -10 -3 -7 -7z"/>
 <path d="M753 993 c4 -3 10 -3 14 0 3 4 0 7 -7 7 -7 0 -10 -3 -7 -7z"/>
 <path d="M480 970 c0 -7 3 -10 7 -7 3 4 3 10 0 14 -4 3 -7 0 -7 -7z"/>
 <path d="M793 963 c4 -3 10 -3 14 0 3 4 0 7 -7 7 -7 0 -10 -3 -7 -7z"/>
 <path d="M840 950 c0 -7 3 -10 7 -7 3 4 3 10 0 14 -4 3 -7 0 -7 -7z"/>
 <path d="M820 890 c0 -7 3 -10 7 -7 3 4 3 10 0 14 -4 3 -7 0 -7 -7z"/>
 <path d="M805 870 c3 -5 8 -10 11 -10 3 0 2 5 -1 10 -3 6 -8 10 -11 10 -3 0 -2 -4 1 -10z"/>
 <path d="M437 806 c-19 -15 -23 -36 -5 -36 6 0 8 3 5 7 -4 3 1 12 11 19 9 7 15 15 12 17 -3 3 -13 0 -23 -7z"/>
 <path d="M780 770 c0 -7 3 -10 7 -7 3 4 3 10 0 14 -4 3 -7 0 -7 -7z"/>
 <path d="M450 766 c0 -3 15 -9 33 -14 17 -6 41 -13 52 -17 12 -4 10 -1 -5 8 -27 15 -80 30 -80 23z"/>
 <path d="M560 735 c0 -8 7 -15 16 -15 14 0 14 3 4 15 -7 8 -14 15 -16 15 -2 0 -4 -7 -4 -15z"/>
 <path d="M678 713 c7 -3 16 -2 19 1 4 3 -2 6 -13 5 -11 0 -14 -3 -6 -6z"/>
 <path d="M663 693 c4 -3 10 -3 14 0 3 4 0 7 -7 7 -7 0 -10 -3 -7 -7z"/>
 <path d="M750 680 c0 -7 3 -10 7 -7 3 4 3 10 0 14 -4 3 -7 0 -7 -7z"/>
 </g>
<g id="layer104" fill="#1ea47c" stroke="none">
 <path d="M988 2133 c6 -2 18 -2 25 0 6 3 1 5 -13 5 -14 0 -19 -2 -12 -5z"/>
 <path d="M1110 2096 c0 -2 8 -10 18 -17 15 -13 16 -12 3 4 -13 16 -21 21 -21 13z"/>
 <path d="M1141 2055 c0 -5 6 -19 14 -29 8 -11 15 -15 15 -10 0 6 -7 19 -15 30 -8 10 -14 15 -14 9z"/>
 <path d="M850 2040 c0 -7 3 -10 7 -7 3 4 3 10 0 14 -4 3 -7 0 -7 -7z"/>
 <path d="M830 1990 c0 -7 3 -10 7 -7 3 4 3 10 0 14 -4 3 -7 0 -7 -7z"/>
 <path d="M820 1960 c0 -7 3 -10 7 -7 3 4 3 10 0 14 -4 3 -7 0 -7 -7z"/>
 <path d="M800 1905 c0 -8 2 -15 4 -15 2 0 6 7 10 15 3 8 1 15 -4 15 -6 0 -10 -7 -10 -15z"/>
 <path d="M1149 1894 c-5 -15 -8 -29 -5 -31 2 -2 8 10 14 26 13 38 5 41 -9 5z"/>
 <path d="M790 1870 c0 -7 3 -10 7 -7 3 4 3 10 0 14 -4 3 -7 0 -7 -7z"/>
 <path d="M1130 1840 c0 -7 3 -10 7 -7 3 4 3 10 0 14 -4 3 -7 0 -7 -7z"/>
 <path d="M650 1460 c0 -7 3 -10 7 -7 3 4 3 10 0 14 -4 3 -7 0 -7 -7z"/>
 <path d="M608 1335 c-3 -6 -8 -23 -12 -40 l-6 -30 16 28 c8 16 14 33 11 40 -2 6 -6 7 -9 2z"/>
 <path d="M931 1239 c-6 -18 -9 -34 -7 -36 2 -2 9 10 15 28 6 18 9 34 7 36 -2 2 -9 -10 -15 -28z"/>
 <path d="M580 1250 c0 -7 3 -10 7 -7 3 4 3 10 0 14 -4 3 -7 0 -7 -7z"/>
 <path d="M570 1220 c0 -7 3 -10 7 -7 3 4 3 10 0 14 -4 3 -7 0 -7 -7z"/>
 <path d="M860 1030 c0 -7 3 -10 7 -7 3 4 3 10 0 14 -4 3 -7 0 -7 -7z"/>
 <path d="M845 999 c-4 -6 -5 -12 -2 -15 2 -3 7 2 10 11 7 17 1 20 -8 4z"/>
 <path d="M388 675 c-3 -11 -9 -29 -13 -40 -3 -11 1 -7 10 8 9 16 15 33 12 40 -2 6 -6 3 -9 -8z"/>
 <path d="M720 610 c0 -7 3 -10 7 -7 3 4 3 10 0 14 -4 3 -7 0 -7 -7z"/>
 <path d="M351 560 c-7 -23 -9 -51 -4 -63 5 -17 9 -8 14 38 4 33 6 61 5 63 -2 1 -8 -16 -15 -38z"/>
 <path d="M706 563 c-6 -14 -5 -15 5 -6 7 7 10 15 7 18 -3 3 -9 -2 -12 -12z"/>
 <path d="M690 530 c0 -7 3 -10 7 -7 3 4 3 10 0 14 -4 3 -7 0 -7 -7z"/>
 <path d="M360 464 c0 -6 7 -19 16 -30 14 -18 14 -18 3 6 -14 31 -19 36 -19 24z"/>
 <path d="M654 438 c-4 -7 -3 -8 4 -4 7 4 12 9 12 12 0 8 -9 4 -16 -8z"/>
 <path d="M424 381 c3 -5 16 -11 28 -14 22 -6 22 -5 4 8 -22 17 -40 20 -32 6z"/>
 <path d="M584 374 c-18 -14 -18 -15 4 -4 12 6 22 13 22 15 0 8 -5 6 -26 -11z"/>
 <path d="M508 353 c6 -2 18 -2 25 0 6 3 1 5 -13 5 -14 0 -19 -2 -12 -5z"/>
 </g>
<g id="layer105" fill="#d91259" stroke="none">
 <path d="M470 1890 c0 -10 23 -14 75 -12 24 1 26 0 10 -7 -13 -5 -4 -8 30 -8 49 0 49 1 18 11 -17 6 -35 14 -39 18 -3 4 -15 3 -25 -3 -13 -6 -25 -6 -38 1 -25 13 -31 13 -31 0z"/>
 <path d="M418 1859 c-18 -18 -26 -26 -17 -20 9 6 25 9 35 5 16 -5 16 -4 4 5 -13 9 -12 12 5 25 11 9 17 16 13 16 -4 0 -22 -14 -40 -31z"/>
 <path d="M468 1863 c6 -2 18 -2 25 0 6 3 1 5 -13 5 -14 0 -19 -2 -12 -5z"/>
 <path d="M663 1843 c4 -3 10 -3 14 0 3 4 0 7 -7 7 -7 0 -10 -3 -7 -7z"/>
 <path d="M375 1810 c3 -5 8 -10 11 -10 2 0 4 5 4 10 0 6 -5 10 -11 10 -5 0 -7 -4 -4 -10z"/>
 <path d="M723 1805 c0 -7 7 -11 15 -8 11 5 13 1 7 -18 -5 -18 -4 -21 4 -9 15 21 14 28 -7 39 -14 7 -19 6 -19 -4z"/>
 <path d="M370 1739 c4 -27 10 -52 14 -56 4 -5 5 9 1 31 -5 24 -4 41 3 45 7 4 5 11 -6 18 -17 10 -18 7 -12 -38z"/>
 <path d="M346 1744 c-4 -15 -2 -32 3 -37 8 -8 11 0 11 26 0 44 -5 47 -14 11z"/>
 <path d="M720 1750 c0 -7 3 -10 7 -7 3 4 3 10 0 14 -4 3 -7 0 -7 -7z"/>
 <path d="M1100 1700 c0 -5 5 -10 11 -10 5 0 7 5 4 10 -3 6 -8 10 -11 10 -2 0 -4 -4 -4 -10z"/>
 <path d="M360 1666 c0 -8 4 -17 9 -20 5 -4 7 3 4 14 -6 23 -13 26 -13 6z"/>
 <path d="M683 1673 c4 -3 10 -3 14 0 3 4 0 7 -7 7 -7 0 -10 -3 -7 -7z"/>
 <path d="M706 1665 c-9 -26 -7 -32 5 -12 6 10 9 21 6 23 -2 3 -7 -2 -11 -11z"/>
 <path d="M1086 1664 c-9 -24 -2 -26 12 -4 7 11 8 20 3 20 -5 0 -12 -7 -15 -16z"/>
 <path d="M1163 1673 c4 -3 10 -3 14 0 3 4 0 7 -7 7 -7 0 -10 -3 -7 -7z"/>
 <path d="M1140 1660 c0 -7 3 -10 7 -7 3 4 3 10 0 14 -4 3 -7 0 -7 -7z"/>
 <path d="M1203 1648 c-2 -16 0 -19 6 -9 6 8 17 11 32 7 23 -7 23 -7 5 8 -27 22 -41 20 -43 -6z"/>
 <path d="M390 1650 c0 -7 3 -10 7 -7 3 4 3 10 0 14 -4 3 -7 0 -7 -7z"/>
 <path d="M1280 1630 c0 -5 6 -10 14 -10 8 0 23 -3 33 -6 16 -6 16 -5 -2 9 -23 19 -45 22 -45 7z"/>
 <path d="M380 1620 c0 -5 5 -10 10 -10 6 0 10 5 10 10 0 6 -4 10 -10 10 -5 0 -10 -4 -10 -10z"/>
 <path d="M691 1614 c0 -11 3 -14 6 -6 3 7 2 16 -1 19 -3 4 -6 -2 -5 -13z"/>
 <path d="M1223 1623 c4 -3 10 -3 14 0 3 4 0 7 -7 7 -7 0 -10 -3 -7 -7z"/>
 <path d="M665 1599 c-4 -6 -5 -12 -2 -15 2 -3 7 2 10 11 7 17 1 20 -8 4z"/>
 <path d="M1090 1600 c0 -7 3 -10 7 -7 3 4 3 10 0 14 -4 3 -7 0 -7 -7z"/>
 <path d="M1373 1603 c4 -3 10 -3 14 0 3 4 0 7 -7 7 -7 0 -10 -3 -7 -7z"/>
 <path d="M439 1579 c19 -11 43 -23 54 -25 11 -2 39 -11 64 -20 24 -9 46 -14 49 -11 3 3 -8 8 -25 12 -19 4 -28 11 -25 17 4 7 2 8 -4 4 -7 -4 -26 -1 -44 7 -99 43 -121 48 -69 16z"/>
 <path d="M1430 1584 c19 -9 38 -21 42 -28 5 -7 8 -5 8 5 0 9 -11 20 -24 23 -13 3 -32 8 -43 11 -10 3 -2 -2 17 -11z"/>
 <path d="M568 1583 c7 -3 16 -2 19 1 4 3 -2 6 -13 5 -11 0 -14 -3 -6 -6z"/>
 <path d="M1060 1580 c0 -7 3 -10 7 -7 3 4 3 10 0 14 -4 3 -7 0 -7 -7z"/>
 <path d="M1360 1575 c0 -8 6 -12 14 -9 8 3 28 -2 45 -10 16 -9 34 -16 38 -16 9 1 -78 49 -89 50 -5 0 -8 -7 -8 -15z"/>
 <path d="M583 1553 c4 -3 10 -3 14 0 3 4 0 7 -7 7 -7 0 -10 -3 -7 -7z"/>
 <path d="M1046 1545 c-9 -26 -7 -32 5 -12 6 10 9 21 6 23 -2 3 -7 -2 -11 -11z"/>
 <path d="M623 1533 c4 -3 10 -3 14 0 3 4 0 7 -7 7 -7 0 -10 -3 -7 -7z"/>
 <path d="M660 1530 c0 -7 3 -10 7 -7 3 4 3 10 0 14 -4 3 -7 0 -7 -7z"/>
 <path d="M1090 1530 c0 -7 3 -10 7 -7 3 4 3 10 0 14 -4 3 -7 0 -7 -7z"/>
 <path d="M1453 1523 c4 -3 10 -3 14 0 3 4 0 7 -7 7 -7 0 -10 -3 -7 -7z"/>
 <path d="M1445 1489 c-4 -6 -5 -12 -2 -15 2 -3 7 2 10 11 7 17 1 20 -8 4z"/>
 <path d="M1033 1435 c0 -8 4 -12 9 -9 5 3 6 10 3 15 -9 13 -12 11 -12 -6z"/>
 <path d="M1859 1435 c18 -8 36 -15 40 -15 13 1 -45 29 -59 29 -8 0 0 -6 19 -14z"/>
 <path d="M1103 1433 c4 -3 10 -3 14 0 3 4 0 7 -7 7 -7 0 -10 -3 -7 -7z"/>
 <path d="M1422 1419 c-13 -34 -25 -85 -19 -79 9 9 36 94 32 98 -3 3 -8 -6 -13 -19z"/>
 <path d="M1810 1430 c0 -7 3 -10 7 -7 3 4 3 10 0 14 -4 3 -7 0 -7 -7z"/>
 <path d="M1833 1413 c4 -3 10 -3 14 0 3 4 0 7 -7 7 -7 0 -10 -3 -7 -7z"/>
 <path d="M1930 1410 c17 -11 47 -14 36 -3 -3 4 -17 8 -29 10 -17 2 -19 1 -7 -7z"/>
 <path d="M1028 1403 c7 -3 16 -2 19 1 4 3 -2 6 -13 5 -11 0 -14 -3 -6 -6z"/>
 <path d="M1078 1384 c13 -9 26 -13 30 -9 8 8 -17 25 -38 25 -9 0 -6 -6 8 -16z"/>
 <path d="M1888 1393 c6 -2 18 -2 25 0 6 3 1 5 -13 5 -14 0 -19 -2 -12 -5z"/>
 <path d="M1987 1394 c7 -3 11 -11 9 -17 -1 -7 -1 -9 1 -4 3 4 12 7 21 7 13 0 14 -2 4 -8 -8 -6 -1 -9 19 -9 31 0 31 1 8 12 -13 7 -35 15 -49 19 -14 3 -20 3 -13 0z"/>
 <path d="M1003 1383 c4 -3 10 -3 14 0 3 4 0 7 -7 7 -7 0 -10 -3 -7 -7z"/>
 <path d="M1035 1380 c-3 -5 -1 -10 4 -10 6 0 11 5 11 10 0 6 -2 10 -4 10 -3 0 -8 -4 -11 -10z"/>
 <path d="M1782 1348 c-5 -18 -13 -42 -17 -53 -6 -14 -5 -17 3 -10 11 11 34 86 27 93 -2 2 -8 -11 -13 -30z"/>
 <path d="M1810 1370 c0 -5 5 -10 10 -10 6 0 10 5 10 10 0 6 -4 10 -10 10 -5 0 -10 -4 -10 -10z"/>
 <path d="M1063 1363 c4 -3 10 -3 14 0 3 4 0 7 -7 7 -7 0 -10 -3 -7 -7z"/>
 <path d="M1155 1333 c32 -21 100 -39 91 -24 -3 5 3 11 14 14 23 6 26 -3 8 -21 -7 -7 -9 -12 -4 -12 9 0 40 30 35 34 -14 12 -52 27 -57 22 -3 -3 1 -6 9 -6 10 -1 9 -4 -4 -11 -10 -6 -26 -7 -35 -3 -9 4 -24 8 -32 9 -8 1 -24 6 -35 10 -11 4 -6 -2 10 -12z"/>
 <path d="M2085 1340 c3 -5 8 -10 11 -10 3 0 2 5 -1 10 -3 6 -8 10 -11 10 -3 0 -2 -4 1 -10z"/>
 <path d="M1320 1310 c0 -5 5 -10 10 -10 6 0 10 5 10 10 0 6 -4 10 -10 10 -5 0 -10 -4 -10 -10z"/>
 <path d="M2086 1307 c3 -10 9 -15 12 -12 3 3 0 11 -7 18 -10 9 -11 8 -5 -6z"/>
 <path d="M1353 1286 c4 -11 1 -13 -11 -9 -10 3 -8 -1 6 -12 13 -9 25 -15 27 -13 8 7 -7 48 -17 48 -6 0 -8 -7 -5 -14z"/>
 <path d="M2114 1288 c-4 -7 -3 -8 4 -4 12 7 16 16 8 16 -3 0 -8 -5 -12 -12z"/>
 <path d="M1303 1283 c4 -3 10 -3 14 0 3 4 0 7 -7 7 -7 0 -10 -3 -7 -7z"/>
 <path d="M2130 1225 c0 -22 4 -34 10 -30 6 3 10 17 10 30 0 13 -4 27 -10 30 -6 4 -10 -8 -10 -30z"/>
 <path d="M2100 1230 c0 -7 3 -10 7 -7 3 4 3 10 0 14 -4 3 -7 0 -7 -7z"/>
 <path d="M1727 1181 c-4 -17 -3 -21 5 -13 5 5 8 16 6 23 -3 8 -7 3 -11 -10z"/>
 <path d="M1751 1174 c0 -11 3 -14 6 -6 3 7 2 16 -1 19 -3 4 -6 -2 -5 -13z"/>
 <path d="M2120 1171 c0 -7 -4 -9 -10 -6 -6 4 -7 -1 -3 -11 6 -15 7 -15 15 1 6 9 7 19 4 22 -3 4 -6 1 -6 -6z"/>
 <path d="M1730 1146 c0 -2 7 -6 15 -10 8 -3 15 -1 15 4 0 6 -7 10 -15 10 -8 0 -15 -2 -15 -4z"/>
 <path d="M2077 1125 c-4 -8 -2 -17 3 -20 6 -4 10 3 10 14 0 25 -6 27 -13 6z"/>
 <path d="M1790 1116 c0 -2 9 -6 20 -9 11 -3 18 -1 14 4 -5 9 -34 13 -34 5z"/>
 <path d="M1960 1110 c8 -5 22 -9 30 -9 10 0 8 3 -5 9 -27 12 -43 12 -25 0z"/>
 <path d="M1845 1101 c17 -17 62 -24 71 -10 5 9 2 10 -9 6 -10 -4 -30 -2 -45 4 -17 6 -23 7 -17 0z"/>
 <path d="M2020 1100 c0 -7 3 -10 7 -7 3 4 3 10 0 14 -4 3 -7 0 -7 -7z"/>
 <path d="M2045 1090 c-3 -5 -2 -10 4 -10 5 0 13 5 16 10 3 6 2 10 -4 10 -5 0 -13 -4 -16 -10z"/>
 <path d="M1995 1080 c27 -12 43 -12 25 0 -8 5 -22 9 -30 9 -10 0 -8 -3 5 -9z"/>
 <path d="M1925 1070 c4 -6 11 -8 16 -5 14 9 11 15 -7 15 -8 0 -12 -5 -9 -10z"/>
 </g>
<g id="layer106" fill="#351038" stroke="none">
 <path d="M760 1810 c0 -7 3 -10 7 -7 3 4 3 10 0 14 -4 3 -7 0 -7 -7z"/>
 <path d="M780 1809 c0 -7 -8 -18 -17 -25 -12 -9 -14 -13 -5 -14 7 0 10 -5 7 -10 -4 -6 -11 -7 -17 -4 -8 5 -9 1 -4 -11 9 -23 -2 -57 -16 -49 -8 5 -9 1 -5 -10 4 -10 1 -24 -9 -33 -10 -11 -13 -25 -9 -47 4 -21 3 -27 -3 -17 -7 10 -13 5 -22 -23 -6 -19 -8 -41 -4 -47 4 -8 3 -9 -4 -5 -17 10 -15 -3 2 -20 13 -12 15 -12 19 4 4 14 5 14 6 1 1 -22 153 -79 209 -79 13 0 20 -4 17 -10 -5 -9 16 -14 53 -13 6 1 12 -4 13 -11 0 -6 7 7 15 28 8 22 12 42 9 44 -3 3 -5 -1 -5 -8 0 -7 -2 -11 -5 -8 -8 8 6 39 15 33 5 -3 6 5 3 17 -3 13 -2 20 2 16 12 -12 43 85 38 116 -4 17 0 28 10 32 9 3 13 14 10 27 -4 18 -3 19 6 7 6 -8 11 -10 11 -4 0 17 -27 37 -40 29 -5 -3 -10 -1 -10 4 0 6 -11 11 -24 11 -13 0 -26 5 -28 11 -2 5 -22 13 -46 16 -23 3 -42 8 -42 12 0 3 -12 7 -26 8 -15 0 -29 5 -33 10 -6 8 -56 33 -66 33 -3 0 -5 -5 -5 -11z m1 -66 c-12 -20 -14 -14 -5 12 4 9 9 14 11 11 3 -2 0 -13 -6 -23z m-64 -120 c-4 -3 -7 0 -7 7 0 7 3 10 7 7 3 -4 3 -10 0 -14z m330 -60 c-4 -3 -7 0 -7 7 0 7 3 10 7 7 3 -4 3 -10 0 -14z m-347 -8 c0 -8 -4 -15 -10 -15 -5 0 -7 7 -4 15 4 8 8 15 10 15 2 0 4 -7 4 -15z m77 -52 c-4 -3 -10 -3 -14 0 -3 4 0 7 7 7 7 0 10 -3 7 -7z m203 -57 c0 -3 -5 -8 -12 -12 -7 -4 -8 -3 -4 4 7 12 16 16 16 8z m20 -26 c0 -5 -5 -10 -11 -10 -5 0 -7 5 -4 10 3 6 8 10 11 10 2 0 4 -4 4 -10z"/>
 <path d="M730 1720 c0 -7 3 -10 7 -7 3 4 3 10 0 14 -4 3 -7 0 -7 -7z"/>
 <path d="M1070 1630 c0 -7 3 -10 7 -7 3 4 3 10 0 14 -4 3 -7 0 -7 -7z"/>
 </g>
<g id="layer107" fill="#ce0e0b" stroke="none">
 <path d="M1483 1558 c0 -7 -13 -49 -27 -93 -15 -44 -25 -91 -22 -105 3 -14 3 -19 0 -12 -9 19 -24 14 -24 -8 0 -12 -7 -35 -16 -51 -8 -17 -14 -32 -12 -33 31 -23 267 -99 284 -92 8 3 13 0 11 -6 -1 -7 5 -13 14 -15 12 -3 23 20 47 94 18 54 32 103 32 110 0 6 3 13 8 15 12 5 40 98 31 104 -5 3 -9 -3 -10 -13 0 -15 -2 -15 -9 3 -5 13 -21 24 -40 27 -17 4 -46 14 -63 22 -40 19 -177 65 -192 65 -6 0 -12 -6 -12 -12z m284 -115 c-4 -3 -7 0 -7 7 0 7 3 10 7 7 3 -4 3 -10 0 -14z m-312 -201 c-3 -3 -11 0 -18 7 -9 10 -8 11 6 5 10 -3 15 -9 12 -12z"/>
 </g>
<g id="layer108" fill="#1b927b" stroke="none">
 <path d="M1083 1713 c4 -3 10 -3 14 0 3 4 0 7 -7 7 -7 0 -10 -3 -7 -7z"/>
 <path d="M703 1473 c4 -3 10 -3 14 0 3 4 0 7 -7 7 -7 0 -10 -3 -7 -7z"/>
 <path d="M733 1463 c4 -3 10 -3 14 0 3 4 0 7 -7 7 -7 0 -10 -3 -7 -7z"/>
 <path d="M823 1433 c4 -3 10 -3 14 0 3 4 0 7 -7 7 -7 0 -10 -3 -7 -7z"/>
 <path d="M853 1423 c4 -3 10 -3 14 0 3 4 0 7 -7 7 -7 0 -10 -3 -7 -7z"/>
 <path d="M943 1393 c4 -3 10 -3 14 0 3 4 0 7 -7 7 -7 0 -10 -3 -7 -7z"/>
 <path d="M530 1098 c0 -2 -22 -69 -50 -148 -27 -80 -50 -147 -50 -149 0 -2 7 2 15 9 10 8 15 9 15 2 0 -6 -8 -15 -17 -21 -20 -11 -24 -8 60 -36 27 -9 51 -14 55 -11 3 3 12 0 21 -8 28 -24 165 -66 173 -53 4 6 5 14 2 18 -2 4 -1 9 3 11 14 6 55 138 48 155 -3 10 -3 14 1 10 4 -4 18 21 30 55 13 34 21 64 19 67 -3 2 -5 -2 -5 -10 0 -9 -3 -10 -8 -3 -4 6 -70 33 -147 59 -77 26 -146 50 -152 53 -7 2 -13 2 -13 0z m37 -35 c-4 -3 -7 0 -7 7 0 7 3 10 7 7 3 -4 3 -10 0 -14z m40 -10 c-4 -3 -10 -3 -14 0 -3 4 0 7 7 7 7 0 10 -3 7 -7z m30 -10 c-4 -3 -10 -3 -14 0 -3 4 0 7 7 7 7 0 10 -3 7 -7z m-80 -20 c-4 -3 -7 0 -7 7 0 7 3 10 7 7 3 -4 3 -10 0 -14z m-34 -18 c-3 -9 -8 -14 -10 -11 -3 3 -2 9 2 15 9 16 15 13 8 -4z m244 -12 c-4 -3 -10 -3 -14 0 -3 4 0 7 7 7 7 0 10 -3 7 -7z m48 -22 c-3 -6 -11 -11 -16 -11 -5 0 -4 6 3 14 14 16 24 13 13 -3z m-118 -257 c-3 -3 -12 -4 -19 -1 -8 3 -5 6 6 6 11 1 17 -2 13 -5z"/>
 </g>
<g id="layer109" fill="#64841b" stroke="none">
 <path d="M1191 699 c-29 -88 -51 -162 -49 -163 7 -7 310 -106 322 -106 8 0 33 60 65 156 28 86 50 158 49 159 -2 1 -23 9 -48 18 -25 8 -90 31 -145 50 -55 19 -109 38 -120 41 -19 5 -25 -9 -74 -155z"/>
 </g>
<g id="layer110" fill="#e01563" stroke="none">
 <path d="M503 1889 c11 -7 23 -7 35 0 14 9 11 10 -18 10 -29 0 -32 -1 -17 -10z"/>
 <path d="M447 1877 c4 -6 0 -8 -9 -4 -10 3 -27 -6 -44 -24 -15 -16 -22 -29 -16 -29 7 0 12 -4 12 -10 0 -5 -7 -7 -16 -3 -14 5 -15 3 -5 -15 7 -12 17 -22 24 -22 8 0 8 -3 -2 -9 -10 -6 -12 -20 -7 -47 5 -28 4 -35 -3 -24 -6 8 -11 32 -11 52 0 20 -3 39 -7 41 -5 3 -8 -21 -8 -53 -1 -34 3 -56 9 -53 5 4 7 -3 3 -17 -4 -17 -1 -23 14 -27 11 -3 18 -12 17 -21 -2 -9 5 -16 19 -17 13 -1 26 -5 30 -10 5 -4 0 -5 -9 -2 -25 9 -22 0 3 -14 16 -8 20 -8 14 1 -5 8 0 11 16 8 13 -2 23 -8 22 -14 -1 -5 14 -9 33 -9 26 1 31 -1 23 -11 -8 -9 -5 -11 12 -7 14 4 20 2 16 -4 -5 -7 1 -9 15 -5 13 3 19 1 15 -5 -4 -6 7 -16 25 -22 17 -6 29 -9 26 -6 -3 4 12 56 34 118 22 62 43 126 47 142 4 17 14 41 21 54 11 21 10 23 -3 18 -9 -3 -17 -1 -20 6 -2 6 -20 11 -40 11 -20 0 -32 3 -26 7 17 10 -20 16 -81 13 -53 -2 -54 -2 -25 11 36 16 31 18 -11 6 -17 -5 -50 -5 -72 -1 -28 5 -39 4 -35 -3z m-2 -30 c6 -5 2 -6 -9 -3 -10 4 -26 1 -35 -6 -10 -8 -9 -5 3 10 11 12 22 19 25 15 3 -4 11 -12 16 -16z m48 16 c-7 -2 -19 -2 -25 0 -7 3 -2 5 12 5 14 0 19 -2 13 -5z m257 -58 c0 -2 -6 -5 -13 -8 -8 -3 -14 1 -14 8 0 7 6 11 14 8 7 -3 13 -6 13 -8z m-23 -62 c-4 -3 -7 0 -7 7 0 7 3 10 7 7 3 -4 3 -10 0 -14z m-30 -70 c-4 -3 -10 -3 -14 0 -3 4 0 7 7 7 7 0 10 -3 7 -7z m-300 -30 c-4 -3 -7 0 -7 7 0 7 3 10 7 7 3 -4 3 -10 0 -14z m276 -48 c-3 -9 -8 -14 -10 -11 -3 3 -2 9 2 15 9 16 15 13 8 -4z m-86 -11 c-3 -3 -12 -4 -19 -1 -8 3 -5 6 6 6 11 1 17 -2 13 -5z m10 -31 c-4 -3 -10 -3 -14 0 -3 4 0 7 7 7 7 0 10 -3 7 -7z m40 -20 c-4 -3 -10 -3 -14 0 -3 4 0 7 7 7 7 0 10 -3 7 -7z"/>
 <path d="M603 1873 c4 -3 10 -3 14 0 3 4 0 7 -7 7 -7 0 -10 -3 -7 -7z"/>
 <path d="M1115 1700 c4 -6 1 -10 -6 -10 -7 0 -9 -3 -6 -7 4 -3 3 -11 -2 -17 -5 -6 -27 -63 -49 -126 -22 -63 -43 -123 -47 -132 -4 -11 -3 -18 5 -18 6 0 8 -4 5 -10 -9 -14 8 -12 24 3 11 10 13 9 8 -6 -6 -15 -3 -17 14 -12 16 5 19 4 14 -6 -6 -9 -3 -11 8 -6 10 4 17 2 17 -4 0 -7 10 -9 23 -6 12 4 29 2 37 -4 11 -8 9 -9 -10 -4 -21 5 -22 4 -8 -5 12 -7 24 -8 36 -1 13 7 22 7 29 0 6 -6 21 -8 33 -4 18 6 20 9 9 16 -20 13 -1 11 24 -2 31 -17 31 -16 12 -35 -17 -17 -16 -19 20 -31 41 -14 57 -10 48 12 -3 8 0 15 6 15 6 0 11 -8 11 -17 0 -32 16 2 34 72 10 39 22 74 27 80 5 5 9 19 9 31 0 13 5 26 11 29 6 4 8 13 5 21 -3 8 -1 14 4 14 6 0 10 9 10 20 0 11 -5 20 -11 20 -5 0 -7 5 -3 12 4 7 3 8 -5 4 -16 -10 -53 3 -45 16 4 6 -1 8 -16 3 -13 -4 -20 -3 -17 2 4 6 -10 15 -31 21 -35 10 -36 10 -17 -5 18 -14 18 -15 2 -9 -10 3 -25 6 -34 6 -9 0 -13 6 -10 14 3 8 -2 16 -14 19 -11 3 -17 1 -13 -5 4 -6 -2 -8 -16 -3 -15 5 -26 2 -32 -6 -7 -11 -9 -11 -7 1 3 34 -1 41 -22 35 -14 -5 -19 -3 -15 3 3 6 -8 15 -24 21 -18 6 -28 6 -25 1z m32 -47 c-4 -3 -7 0 -7 7 0 7 3 10 7 7 3 -4 3 -10 0 -14z m90 -30 c-4 -3 -10 -3 -14 0 -3 4 0 7 7 7 7 0 10 -3 7 -7z m-140 -30 c-4 -3 -7 0 -7 7 0 7 3 10 7 7 3 -4 3 -10 0 -14z m323 -28 c25 -13 41 -24 37 -25 -4 0 -22 7 -38 16 -17 8 -37 13 -45 10 -8 -3 -14 1 -14 9 0 20 7 19 60 -10z m-323 -42 c-4 -3 -7 0 -7 7 0 7 3 10 7 7 3 -4 3 -10 0 -14z m-52 -82 c3 -5 2 -12 -3 -15 -5 -3 -9 1 -9 9 0 17 3 19 12 6z m72 -8 c-4 -3 -10 -3 -14 0 -3 4 0 7 7 7 7 0 10 -3 7 -7z m-70 -29 c-3 -3 -12 -4 -19 -1 -8 3 -5 6 6 6 11 1 17 -2 13 -5z m53 -14 c8 -5 11 -12 8 -15 -4 -4 -17 0 -30 9 -24 17 -5 23 22 6z m240 -80 c0 -5 -4 -10 -10 -10 -5 0 -10 5 -10 10 0 6 5 10 10 10 6 0 10 -4 10 -10z m-23 -27 c-4 -3 -10 -3 -14 0 -3 4 0 7 7 7 7 0 10 -3 7 -7z m30 -10 c-4 -3 -10 -3 -14 0 -3 4 0 7 7 7 7 0 10 -3 7 -7z"/>
 <path d="M1423 1593 c4 -3 10 -3 14 0 3 4 0 7 -7 7 -7 0 -10 -3 -7 -7z"/>
 <path d="M513 1543 c4 -3 10 -3 14 0 3 4 0 7 -7 7 -7 0 -10 -3 -7 -7z"/>
 <path d="M1801 1378 c-13 -46 -26 -87 -30 -93 -4 -5 -13 -30 -20 -55 -7 -25 -19 -57 -27 -71 -13 -25 -12 -26 22 -37 20 -6 41 -9 48 -6 6 2 31 -2 54 -10 23 -9 50 -13 60 -10 16 5 16 5 -1 -9 -17 -14 -16 -15 3 -20 11 -3 18 -1 14 4 -3 5 2 9 11 9 9 0 13 -4 10 -10 -4 -6 10 -10 34 -10 46 0 51 6 19 21 -19 8 -19 9 -3 5 11 -2 28 -7 38 -11 12 -5 17 -3 15 5 -2 7 3 15 11 18 9 3 11 0 6 -8 -6 -9 -4 -11 4 -6 7 5 10 14 8 20 -3 7 -1 19 4 27 7 11 9 10 9 -4 0 -15 2 -16 14 -5 10 10 11 18 3 33 -9 18 -9 19 7 6 14 -12 16 -12 10 4 -4 10 -3 16 2 13 15 -10 10 125 -6 150 -15 23 -37 32 -24 10 4 -8 3 -10 -2 -5 -5 5 -9 14 -9 20 0 7 -9 11 -19 9 -12 -2 -15 1 -11 8 6 9 2 9 -13 1 -30 -16 -39 -14 -16 4 19 15 19 15 -1 8 -11 -3 -23 -11 -27 -17 -5 -8 -8 -7 -8 1 0 7 8 17 18 23 14 9 13 10 -7 4 -16 -4 -21 -3 -16 5 5 8 -1 10 -21 5 -19 -5 -25 -4 -20 4 5 8 1 10 -10 5 -12 -4 -15 -3 -10 5 4 7 3 12 -3 12 -5 0 -18 3 -28 6 -15 5 -16 4 -3 -6 13 -10 12 -11 -3 -6 -10 3 -21 6 -23 6 -3 0 -3 4 0 9 4 5 -4 7 -16 3 -14 -3 -19 -2 -14 6 4 7 3 12 -1 12 -5 0 -19 -37 -32 -82z m46 35 c-4 -3 -10 -3 -14 0 -3 4 0 7 7 7 7 0 10 -3 7 -7z m66 -20 c-7 -2 -19 -2 -25 0 -7 3 -2 5 12 5 14 0 19 -2 13 -5z m-83 -23 c0 -5 -4 -10 -10 -10 -5 0 -10 5 -10 10 0 6 5 10 10 10 6 0 10 -4 10 -10z m268 -75 c-3 -3 -9 2 -12 12 -6 14 -5 15 5 6 7 -7 10 -15 7 -18z m32 1 c0 -3 -5 -8 -12 -12 -7 -4 -8 -3 -4 4 7 12 16 16 16 8z m-23 -73 c-4 -3 -7 0 -7 7 0 7 3 10 7 7 3 -4 3 -10 0 -14z m-350 -55 c-3 -8 -6 -5 -6 6 -1 11 2 17 5 13 3 -3 4 -12 1 -19z m3 -28 c0 -5 -7 -7 -15 -4 -8 4 -15 8 -15 10 0 2 7 4 15 4 8 0 15 -4 15 -10z m225 -30 c13 -6 15 -9 5 -9 -8 0 -22 4 -30 9 -18 12 -2 12 25 0z m42 -17 c-4 -3 -7 0 -7 7 0 7 3 10 7 7 3 -4 3 -10 0 -14z"/>
 <path d="M1260 1321 c-16 -7 -25 -31 -11 -31 10 0 36 29 30 34 -2 2 -11 1 -19 -3z"/>
 <path d="M1213 1303 c4 -3 10 -3 14 0 3 4 0 7 -7 7 -7 0 -10 -3 -7 -7z"/>
 <path d="M1833 1093 c4 -3 10 -3 14 0 3 4 0 7 -7 7 -7 0 -10 -3 -7 -7z"/>
 <path d="M1863 1083 c4 -3 10 -3 14 0 3 4 0 7 -7 7 -7 0 -10 -3 -7 -7z"/>
 </g>
<g id="layer111" fill="#6dc9db" stroke="none">
 <path d="M983 2143 c9 -2 25 -2 35 0 9 3 1 5 -18 5 -19 0 -27 -2 -17 -5z"/>
 <path d="M1135 2080 c3 -5 8 -10 11 -10 3 0 2 5 -1 10 -3 6 -8 10 -11 10 -3 0 -2 -4 1 -10z"/>
 <path d="M820 1990 c0 -7 3 -10 7 -7 3 4 3 10 0 14 -4 3 -7 0 -7 -7z"/>
 <path d="M1170 1930 c0 -7 3 -10 7 -7 3 4 3 10 0 14 -4 3 -7 0 -7 -7z"/>
 <path d="M177 1155 c-49 -34 -71 -78 -71 -145 -1 -101 51 -150 214 -200 41 -13 81 -30 88 -38 11 -14 12 -14 12 4 0 10 24 90 54 176 l53 157 -103 35 c-129 45 -193 47 -247 11z"/>
 <path d="M855 968 c-3 -18 -12 -49 -20 -68 -26 -68 -77 -232 -73 -236 3 -2 88 -32 190 -66 l185 -63 52 155 c28 86 51 161 51 167 0 6 -10 13 -22 16 -33 8 -331 112 -345 120 -7 5 -14 -5 -18 -25z"/>
 <path d="M1528 584 l-55 -164 110 -35 c60 -19 127 -35 149 -35 158 0 228 200 104 295 -18 14 -83 43 -143 64 l-111 39 -54 -164z"/>
 <path d="M370 650 c0 -7 3 -10 7 -7 3 4 3 10 0 14 -4 3 -7 0 -7 -7z"/>
 <path d="M700 520 c0 -7 3 -10 7 -7 3 4 3 10 0 14 -4 3 -7 0 -7 -7z"/>
 <path d="M690 490 c0 -7 3 -10 7 -7 3 4 3 10 0 14 -4 3 -7 0 -7 -7z"/>
 <path d="M614 378 c-4 -7 -3 -8 4 -4 12 7 16 16 8 16 -3 0 -8 -5 -12 -12z"/>
 </g>
<g id="layer112" fill="#3eb891" stroke="none">
 <path d="M910 2119 c-18 -12 -28 -24 -24 -31 4 -7 3 -8 -4 -4 -15 9 -44 -36 -45 -71 -1 -16 -7 -32 -13 -38 -17 -14 -28 -55 -15 -55 6 0 8 -7 5 -15 -4 -8 -10 -13 -14 -10 -8 5 -36 -63 -28 -69 1 -1 31 -11 66 -21 35 -10 65 -22 68 -27 3 -4 14 -8 25 -8 10 0 27 -5 37 -10 9 -6 45 -18 78 -29 l61 -18 17 52 c9 29 13 61 9 70 -4 12 -3 16 4 12 6 -4 14 0 17 9 9 24 7 31 -5 14 -8 -11 -9 -9 -3 10 4 14 13 34 20 45 17 23 19 85 3 85 -6 0 -9 7 -5 15 3 8 0 14 -6 12 -6 -1 -13 4 -16 12 -3 9 0 11 9 6 8 -4 1 5 -16 20 -16 14 -24 24 -17 20 22 -11 12 2 -15 21 -40 27 -151 28 -193 3z m7 -16 c-4 -3 -10 -3 -14 0 -3 4 0 7 7 7 7 0 10 -3 7 -7z m-60 -70 c-4 -3 -7 0 -7 7 0 7 3 10 7 7 3 -4 3 -10 0 -14z m-30 -80 c-4 -3 -7 0 -7 7 0 7 3 10 7 7 3 -4 3 -10 0 -14z m-30 -90 c-4 -3 -7 0 -7 7 0 7 3 10 7 7 3 -4 3 -10 0 -14z"/>
 <path d="M1160 1900 c0 -7 3 -10 7 -7 3 4 3 10 0 14 -4 3 -7 0 -7 -7z"/>
 <path d="M655 1470 c4 -11 2 -20 -3 -20 -6 0 -19 -27 -30 -60 -10 -32 -15 -57 -10 -54 9 6 11 -8 2 -30 -3 -9 -11 -13 -17 -9 -6 3 -7 1 -3 -5 8 -14 -14 -93 -25 -87 -5 4 -39 -74 -39 -91 0 -5 281 -102 313 -108 25 -4 27 -2 21 16 -3 12 -2 18 4 15 11 -8 54 121 45 136 -4 6 -1 7 7 2 10 -6 11 -2 6 19 -4 17 -3 25 3 22 5 -4 7 3 3 16 -3 13 -1 19 5 15 7 -5 9 1 5 15 -3 13 -1 19 5 15 9 -6 48 91 39 100 -2 2 -32 12 -67 23 -35 10 -102 33 -149 50 -114 42 -123 44 -115 20z"/>
 <path d="M580 1270 c0 -7 3 -10 7 -7 3 4 3 10 0 14 -4 3 -7 0 -7 -7z"/>
 <path d="M570 1240 c0 -7 3 -10 7 -7 3 4 3 10 0 14 -4 3 -7 0 -7 -7z"/>
 <path d="M490 1010 c0 -7 3 -10 7 -7 3 4 3 10 0 14 -4 3 -7 0 -7 -7z"/>
 <path d="M470 950 c0 -7 3 -10 7 -7 3 4 3 10 0 14 -4 3 -7 0 -7 -7z"/>
 <path d="M836 925 c-9 -26 -7 -32 5 -12 6 10 9 21 6 23 -2 3 -7 -2 -11 -11z"/>
 <path d="M460 920 c0 -7 3 -10 7 -7 3 4 3 10 0 14 -4 3 -7 0 -7 -7z"/>
 <path d="M450 890 c0 -7 3 -10 7 -7 3 4 3 10 0 14 -4 3 -7 0 -7 -7z"/>
 <path d="M810 850 c0 -7 3 -10 7 -7 3 4 3 10 0 14 -4 3 -7 0 -7 -7z"/>
 <path d="M430 830 c0 -7 3 -10 7 -7 3 4 3 10 0 14 -4 3 -7 0 -7 -7z"/>
 <path d="M800 820 c0 -7 3 -10 7 -7 3 4 3 10 0 14 -4 3 -7 0 -7 -7z"/>
 <path d="M790 780 c0 -7 3 -10 7 -7 3 4 3 10 0 14 -4 3 -7 0 -7 -7z"/>
 <path d="M405 737 c-8 -19 -11 -44 -8 -57 4 -16 3 -21 -5 -16 -8 4 -10 2 -6 -7 3 -8 -2 -21 -10 -29 -9 -10 -12 -24 -9 -38 3 -13 2 -21 -3 -18 -5 4 -9 -20 -9 -52 0 -32 3 -56 6 -54 3 2 11 -8 18 -22 9 -20 9 -24 -1 -18 -7 4 -2 -4 11 -17 14 -12 33 -24 43 -24 10 -1 24 -7 31 -14 9 -10 8 -11 -8 -6 -15 5 -16 4 -6 -3 7 -5 42 -9 76 -8 53 2 68 6 102 34 35 27 74 92 56 92 -3 0 0 6 6 14 6 7 8 22 4 31 -4 12 -3 16 4 12 6 -4 14 0 17 9 3 8 2 12 -4 9 -6 -3 -7 1 -4 9 3 9 10 16 16 16 5 0 6 10 3 21 -5 16 -4 19 5 14 8 -5 11 -3 8 6 -3 8 2 20 10 28 8 9 11 16 6 17 -5 1 -80 25 -167 53 -87 28 -160 51 -163 51 -3 0 -11 -15 -19 -33z m265 -291 c0 -3 -5 -8 -12 -12 -7 -4 -8 -3 -4 4 7 12 16 16 16 8z m-74 -71 c-11 -8 -25 -15 -30 -15 -6 1 0 7 14 15 32 19 40 18 16 0z"/>
 <path d="M770 730 c0 -7 3 -10 7 -7 3 4 3 10 0 14 -4 3 -7 0 -7 -7z"/>
 <path d="M760 700 c0 -7 3 -10 7 -7 3 4 3 10 0 14 -4 3 -7 0 -7 -7z"/>
 </g>
<g id="layer113" fill="#e8a71f" stroke="none">
 <path d="M1645 1884 c-38 -20 -58 -42 -83 -90 -21 -40 -76 -213 -70 -218 1 -2 73 -27 158 -55 85 -29 160 -55 166 -57 6 -3 11 1 11 8 0 7 17 60 37 117 47 134 45 185 -9 253 -45 56 -145 76 -210 42z"/>
 <path d="M1312 1059 c-35 -105 -60 -194 -55 -198 4 -4 26 -13 48 -20 22 -7 91 -31 153 -54 67 -23 117 -36 122 -31 8 9 131 376 127 380 -2 2 -327 114 -330 114 -1 0 -31 -86 -65 -191z"/>
 <path d="M1097 417 c-41 -126 -44 -151 -22 -204 49 -116 196 -144 286 -55 28 29 44 61 73 150 21 62 36 114 35 116 -8 5 -315 106 -325 106 -5 0 -26 -51 -47 -113z"/>
 </g>

</svg>